<?xml version="1.0" encoding="UTF-8"?>
<svg xmlns="http://www.w3.org/2000/svg" viewBox="0 0 3000 3000">
  <g id="Fondo">
    <rect width="3000" height="3000" fill="#3f4318"/>
  </g>
  <g id="Gráficos">
    <g>
      <rect x="497.66" y="1789.46" width="2006.86" height="25.4" fill="#f1ece3"/>
      <path d="M1038.13,841.48c33.51,1.24,110.48,6.21,157.65,6.21,3.72,0,9.93,6.2,14.9,17.38,50.89,112.96,225.92,463.02,294.2,592.12,4.97,8.69,7.45,3.72,11.17-3.72,64.55-120.41,219.72-427.02,248.27-489.09,14.89-33.51,31.03-75.72,38.47-100.55,0-2.48,6.21-16.14,12.42-16.14,39.72,0,98.06-7.45,143.99-7.45,12.42,0,19.87,3.72,19.87,8.69,0,3.72-9.94,8.69-18.63,11.17-73.24,16.14-76.96,31.03-80.69,103.03-2.48,43.45-3.72,187.44-3.72,249.51,0,135.31,4.96,258.2,7.45,297.92,4.96,72,18.62,84.41,68.27,98.06,11.18,3.72,18.63,7.45,18.63,13.66s-7.45,8.69-22.35,8.69c-28.55,0-91.86-7.45-129.11-7.45-50.89,0-90.61,3.72-109.23,3.72-11.18,0-24.83-1.24-24.83-11.17,0-4.96,12.41-9.93,23.59-11.17,52.13-12.41,59.58-36,63.3-135.31,3.73-67.03,4.97-392.26,4.97-450.6,0-11.17-3.72-12.41-6.21-4.96-83.17,167.58-230.89,460.53-287.99,589.63-7.45,16.14-12.41,23.59-18.62,23.59-7.45,0-16.14-19.86-26.07-40.96-54.61-120.41-223.44-479.16-266.88-567.29-4.97-9.93-8.69-9.93-9.93,6.2-4.97,67.03-18.63,383.58-18.63,443.16,0,42.21,1.24,65.79,6.21,89.37,6.21,28.55,33.51,43.45,64.55,50.9,12.42,2.48,21.11,7.45,21.11,12.41,0,6.21-11.18,8.69-24.83,8.69-17.38-1.24-60.83-6.21-105.52-6.21-42.2,0-76.96,7.45-90.61,7.45-16.14,0-22.35-3.72-22.35-9.93,0-3.72,4.97-7.44,22.35-11.17,37.24-8.69,53.38-21.11,67.03-39.72,12.42-18.62,18.63-54.62,27.31-134.07,7.45-72,23.59-342.61,23.59-425.78,0-74.48-6.21-91.86-28.55-116.69-21.1-24.83-43.44-26.07-67.03-32.27-11.18-2.48-19.87-7.45-19.87-12.41s12.42-7.45,22.35-7.45Z" fill="#f1ece3"/>
      <g>
        <path d="M373.48,2072.48c5.7-1.24,13.88-4.46,18.34-7.68,1.49-.99,2.73-1.49,3.97-1.49.74,0,1.24.99,1.24,2.48,0,2.73-.25,8.92-.25,11.65,0,.99.25,2.23,1.24,1.49,8.18-7.19,19.58-14.38,30.49-14.38s19.34,5.2,24.78,15.86c.25.5,1.24.74,1.49.25,10.41-9.92,21.57-16.36,33.71-16.36,13.38,0,22.06,8.67,25.03,18.34,1.74,4.96,2.98,14.13,3.22,23.3,0,8.18.74,27.51.99,35.94.25,8.18,1.98,9.91,6.94,10.9,3.22.5,4.46,1.49,4.46,2.23,0,1.24-1.23,1.74-4.46,1.74-2.73,0-11.66-.5-17.35-.5s-12.39.74-16.11.74c-3.22,0-4.71-.5-4.71-1.49,0-1.24,1.98-1.98,4.22-2.48,6.44-1.49,7.68-3.72,7.93-11.15.25-29.74-.99-41.64-1.98-49.08-1.98-12.64-8.67-18.34-20.07-18.34-8.43,0-15.86,4.71-19.58,8.68-.99.74-1.49,3.22-1.49,7.19.74,7.44,1.24,45.86,1.74,52.55.74,6.94,1.49,8.67,7.43,10.16,2.73.74,3.97,1.24,3.97,2.23s-1.74,1.74-4.21,1.74c-5.46,0-11.9-.74-20.08-.74-5.46,0-11.9.74-14.38.74-2.98,0-3.97-.5-3.97-1.49,0-.74.99-1.74,3.97-2.48,5.2-1.24,7.68-2.73,7.68-8.67l.5-39.91c0-13.64-1.24-19.34-6.19-24.54-2.98-3.22-7.19-5.46-14.38-5.46-7.93,0-13.88,3.72-17.59,6.94-1.74,1.74-2.48,4.22-2.73,5.95-.25,2.72-.74,8.18-.74,17.35,0,20.58.74,36.19,1.49,40.65.5,3.72,1.74,6.45,7.43,7.69,2.73.5,3.72,1.24,3.72,1.98,0,1.24-1.98,1.98-3.72,1.98-4.7,0-13.14-.74-19.09-.74-8.18,0-13.38.74-17.34.74-2.23,0-4.22-.74-4.22-1.98,0-.99,1.49-1.74,4.7-2.23,7.44-1.74,7.94-4.46,8.18-7.69.74-4.95.99-27.51.99-40.4,0-8.42,0-14.62-.25-19.08-.25-3.72-1.74-5.95-5.46-8.43-1.74-1.24-2.48-1.74-2.48-2.73,0-.74,1.24-1.24,2.98-1.98Z" fill="#f1ece3"/>
        <path d="M613.44,2076.44c2.98,5.2,4.22,15.62,4.22,23.05,0,9.92-.74,32.72-.74,39.16,0,4.46,2.22,8.92,8.67,8.92,2.23,0,4.71-.5,7.44-1.98,1.24-.74,2.22,0,1.24,2.23-3.72,7.44-11.9,11.41-19.83,11.41s-13.14-6.2-15.12-11.41c-.25-.5-.99-.74-1.24-.25-7.44,6.94-14.87,11.16-24.3,11.16-9.91,0-19.82-8.43-19.82-21.57,0-8.18,6.19-13.14,8.92-14.38,6.2-3.22,28.01-9.67,33.71-11.65,1.98-.74,2.98-2.73,3.22-3.72.25-2.97.5-8.43.5-11.65,0-10.16-1.98-16.61-5.95-19.83-3.22-2.48-7.19-3.96-10.16-3.96-3.72,0-6.45.74-9.67,2.97-1.49,1.24-2.98,2.73-3.46,5.46-.25.99,0,3.47,0,5.2,0,.74-.74,1.74-1.24,2.23-2.48,1.48-10.17,5.45-12.65,5.95-.99.25-2.22-1.24-2.22-2.48,0-1.98,1.98-4.71,4.95-8.18,5.46-6.2,12.89-10.9,18.84-14.13,5.7-2.98,11.15-4.71,15.12-4.71,9.18,0,16.61,5.2,19.58,12.14ZM595.84,2145.1c.99-.98,2.23-3.22,2.73-5.7.74-3.97,1.24-14.13,1.24-23.8,0-.5-.5-1.74-1.24-1.49-2.98.5-15.86,5.21-21.07,7.94-3.22,1.74-6.44,5.7-6.44,12.64,0,8.43,7.18,14.13,14.62,14.13,3.96,0,7.68-1.24,10.16-3.72Z" fill="#f1ece3"/>
        <path d="M665.76,2147.08c-1.98-3.22-2.73-8.42-2.73-14.38v-51.31c0-2.72-.25-4.21-1.49-4.71-.99-.5-3.47-1.24-5.46-1.74-1.98-.25-3.22-1.24-3.22-2.23,0-.5.74-1.24,3.46-2.73,5.95-2.23,14.63-9.17,21.07-16.61,2.48-2.98,4.22-2.23,4.22-1.24-.25,2.23-.5,10.16-.5,12.89,0,.74.25,2.23,1.49,2.23,4.46,0,24.04-.74,28.75-.74.5,0,1.98,1.74,1.98,3.72,0,4.46-1.74,5.95-2.73,5.95h-26.02c-2.98,0-3.47.74-3.47,2.23,0,4.46,0,43.87.25,51.3.5,7.19.99,10.42,2.73,12.65,3.71,4.7,8.92,6.44,14.62,6.44,6.19,0,10.41-1.98,12.89-3.47,2.23-1.48,2.73-.98,2.73,0,0,1.24-1.98,3.72-5.46,6.45-5.7,4.46-13.38,6.7-20.58,6.7-10.16,0-18.09-3.47-22.55-11.41Z" fill="#f1ece3"/>
        <path d="M811.02,2090.07c0,1.49-1.49,2.73-2.48,2.73-2.23,0-34.21-.74-39.91-.74h-12.39c-.5,0-1.98,1.49-2.23,2.23-1.24,2.48-1.74,6.69-1.74,12.64,0,12.64,4.71,22.55,11.16,29.74,6.44,7.44,16.36,10.16,23.79,10.16,10.17,0,17.6-2.23,23.55-7.93,1.98-1.74,2.98-1.24,2.98-.25s-.74,2.23-2.23,3.97c-9.42,10.66-20.33,16.36-35.2,16.36-11.9,0-22.06-4.71-29.5-12.65-7.69-7.93-11.9-19.82-11.9-33.22,0-11.89,4.22-26.52,14.88-36.68,6.69-6.44,17.84-12.14,30.74-12.14,15.37,0,30.49,10.9,30.49,25.78ZM761.2,2076.69c-2.98,3.47-5.21,8.92-5.21,10.66,0,.5.5,1.24.99,1.24h29.99c5.7,0,6.2-2.98,6.2-5.21,0-3.47-.74-7.68-3.47-10.9-2.23-2.23-6.2-4.71-11.65-4.71-5.95,0-11.65,3.72-16.86,8.92Z" fill="#f1ece3"/>
        <path d="M870.52,2083.13c-2.48,2.73-3.47,5.21-3.72,7.93-.74,3.47-.5,11.16-.5,16.11,0,18.1.5,30.24.99,35.45.99,7.93,3.72,9.66,13.14,10.41,3.47.74,4.46,1.24,4.46,2.48s-1.98,1.74-5.7,1.74c-5.21,0-12.39-.99-23.3-.99s-12.39,1.24-16.6,1.24c-2.73,0-3.97-.25-3.97-1.24s1.24-2.23,3.47-2.73c5.45-1.24,7.93-3.22,8.67-10.16.5-4.22.74-18.1.74-34.46.25-15.62.25-23.55,0-27.02,0-1.73-1.49-2.23-6.2-6.44-1.74-1.24-1.98-1.74-1.98-2.48,0-.49,1.49-1.48,3.47-2.23,6.2-1.74,13.63-4.22,17.85-6.44,1.74-.99,2.98-1.24,3.72-1.24.5,0,1.24.99,1.24,2.97,0,3.22-.5,12.15-.5,16.36,0,.74.74.99,1.24.5,6.94-8.92,16.61-17.84,26.52-17.84,2.98,0,6.2.99,8.43,2.72,1.73,1.49,2.22,2.73,2.22,3.97,0,1.98-2.47,6.2-5.7,9.17-2.48,2.23-3.47,2.48-4.46,2.48-.5,0-1.49,0-4.46-1.74-2.73-1.73-5.94-3.22-8.67-3.22-3.72,0-7.44,1.98-10.41,4.71Z" fill="#f1ece3"/>
        <path d="M929.76,2071.73c7.94-1.98,13.38-4.22,19.58-6.69,1.98-.99,3.22-1.74,3.72-1.74.74,0,1.24.74.99,3.47-.5,4.96-.5,19.58-.5,34.21,0,22.31,0,41.15.5,45.11.5,4.96,2.73,6.45,6.94,7.44,2.48.5,3.47.99,3.47,1.98,0,1.24-1.74,1.74-3.72,1.74-2.98,0-11.15-.99-18.83-.99-8.68,0-13.39.5-16.11.5-1.74,0-3.47-.5-3.47-1.49s1.24-1.74,4.7-2.48c5.46-1.24,7.94-3.72,7.94-13.38.25-7.44.74-52.05.74-54.53,0-3.72-.25-5.2-6.94-9.17-1.24-.5-1.98-1.49-1.98-1.98,0-.74.74-1.48,2.98-1.98ZM955.8,2031.33c0,7.44-6.2,10.41-9.92,10.41-4.46,0-8.92-4.46-8.92-9.66,0-6.94,5.45-10.41,9.66-10.41,5.7,0,9.18,5.2,9.18,9.67Z" fill="#f1ece3"/>
        <path d="M1050.73,2076.44c2.98,5.2,4.22,15.62,4.22,23.05,0,9.92-.74,32.72-.74,39.16,0,4.46,2.22,8.92,8.67,8.92,2.23,0,4.71-.5,7.44-1.98,1.24-.74,2.22,0,1.24,2.23-3.72,7.44-11.9,11.41-19.83,11.41s-13.14-6.2-15.12-11.41c-.25-.5-.99-.74-1.24-.25-7.44,6.94-14.87,11.16-24.3,11.16-9.91,0-19.82-8.43-19.82-21.57,0-8.18,6.19-13.14,8.92-14.38,6.2-3.22,28.01-9.67,33.71-11.65,1.98-.74,2.98-2.73,3.22-3.72.25-2.97.5-8.43.5-11.65,0-10.16-1.98-16.61-5.95-19.83-3.22-2.48-7.19-3.96-10.16-3.96-3.72,0-6.45.74-9.67,2.97-1.49,1.24-2.98,2.73-3.46,5.46-.25.99,0,3.47,0,5.2,0,.74-.74,1.74-1.24,2.23-2.48,1.48-10.17,5.45-12.65,5.95-.99.25-2.22-1.24-2.22-2.48,0-1.98,1.98-4.71,4.95-8.18,5.46-6.2,12.89-10.9,18.84-14.13,5.7-2.98,11.15-4.71,15.12-4.71,9.18,0,16.61,5.2,19.58,12.14ZM1033.13,2145.1c.99-.98,2.23-3.22,2.73-5.7.74-3.97,1.24-14.13,1.24-23.8,0-.5-.5-1.74-1.24-1.49-2.98.5-15.86,5.21-21.07,7.94-3.22,1.74-6.44,5.7-6.44,12.64,0,8.43,7.18,14.13,14.62,14.13,3.96,0,7.68-1.24,10.16-3.72Z" fill="#f1ece3"/>
        <path d="M1186.09,2100.73c.5,0,1.24.74,1.24,1.49,0,.99-.25,5.45-1.49,7.44-.25.74-1.98,1.49-2.23,1.49-2.48.5-34.7,2.97-36.94,2.97-1.74,0-2.22-.5-2.22-1.48,0-.74.24-4.46,1.23-6.2.5-.74,1.24-1.24,2.23-1.49,1.74-.25,32.97-3.96,38.18-4.21Z" fill="#f1ece3"/>
        <path d="M1336.56,2066.52c.5.25.99-.74.99-1.24.25-4.46,0-47.34-.25-59.99-.25-1.98-.5-3.47-1.24-4.46-1.24-1.74-3.97-2.98-6.94-3.72-1.74-.74-2.73-1.49-2.73-2.23s1.24-1.48,3.22-1.73c9.42-1.49,20.57-4.96,22.8-5.95,1.24-.74,2.73-1.48,3.47-1.48s1.24,1.24.99,4.46c-.5,6.94-1.49,82.55-1.49,112.04,0,21.32,0,39.16.5,45.6,0,.99.74,1.98,1.49,1.98,1.49,0,6.19-.99,11.15-2.23,1.74-.5,2.48,0,2.48.74,0,1.74-1.74,4.22-6.2,4.71-10.9,1.74-20.82,4.46-27.26,6.7-.99.25-1.74-1.24-1.74-1.98.25-3.47.74-7.19.5-9.92,0-.74-.74-.99-1.24-.74-10.9,8.93-20.57,11.66-28.01,11.66-8.42,0-18.1-3.22-25.78-10.42-6.7-6.19-12.9-18.84-12.9-33.46,0-20.32,11.66-34.2,22.06-41.14,7.94-5.2,19.09-9.17,29.99-9.17,5.95,0,12.89.99,16.11,1.98ZM1301.11,2073.22c-6.69,5.46-12.89,17.35-12.89,35.45,0,27.51,15.12,41.14,29.25,41.14,5.46,0,11.66-1.49,16.36-5.94,1.49-1.49,2.23-4.46,2.48-8.18.99-8.18,1.49-40.4,0-49.08-.5-2.48-1.74-5.21-2.48-5.95-5.45-7.93-13.88-11.4-21.06-11.4-4.96,0-7.94,1.24-11.66,3.96Z" fill="#f1ece3"/>
        <path d="M1401.26,2071.73c7.94-1.98,13.38-4.22,19.58-6.69,1.98-.99,3.22-1.74,3.72-1.74.74,0,1.24.74.99,3.47-.5,4.96-.5,19.58-.5,34.21,0,22.31,0,41.15.5,45.11.5,4.96,2.73,6.45,6.94,7.44,2.48.5,3.47.99,3.47,1.98,0,1.24-1.74,1.74-3.72,1.74-2.98,0-11.15-.99-18.83-.99-8.68,0-13.39.5-16.11.5-1.74,0-3.47-.5-3.47-1.49s1.24-1.74,4.7-2.48c5.46-1.24,7.94-3.72,7.94-13.38.25-7.44.74-52.05.74-54.53,0-3.72-.25-5.2-6.94-9.17-1.24-.5-1.98-1.49-1.98-1.98,0-.74.74-1.48,2.98-1.98ZM1427.29,2031.33c0,7.44-6.2,10.41-9.92,10.41-4.46,0-8.92-4.46-8.92-9.66,0-6.94,5.45-10.41,9.66-10.41,5.7,0,9.18,5.2,9.18,9.67Z" fill="#f1ece3"/>
        <path d="M1481.33,2082.88c0,10.41,8.93,15.86,16.36,20.33,15.86,10.4,22.06,16.85,22.06,29.49,0,10.66-7.44,17.6-12.39,20.58-5.46,3.97-14.38,5.95-21.07,5.95-6.2,0-12.64-1.49-20.08-4.46-1.74-.74-3.46-2.73-3.71-3.97,0-3.47-.5-10.16-.74-12.89-.5-3.22.25-4.22.74-4.22.74,0,1.48.25,3.22,4.96,2.23,5.94,5.95,10.9,10.42,13.63,3.96,2.48,7.43,3.22,11.4,3.22,6.94,0,15.86-6.45,15.86-16.11,0-8.68-5.95-13.88-16.61-20.82-11.65-7.18-20.33-17.1-20.33-27.51,0-8.68,3.97-15.62,9.92-20.08,4.46-3.47,11.9-6.69,20.82-6.69,6.94,0,14.62,1.73,17.6,2.97.5.25,1.24,1.49,1.24,2.23.25,2.73,1.24,7.44,1.49,12.14,0,2.73-.5,3.97-1.49,3.97s-1.24-1.24-1.98-3.22c-1.49-3.72-2.48-7.19-6.19-10.16-2.73-2.48-6.94-3.97-11.9-3.97-7.43,0-14.62,5.45-14.62,14.62Z" fill="#f1ece3"/>
        <path d="M1625.85,2090.07c0,1.49-1.49,2.73-2.48,2.73-2.23,0-34.21-.74-39.91-.74h-12.39c-.5,0-1.98,1.49-2.23,2.23-1.24,2.48-1.74,6.69-1.74,12.64,0,12.64,4.71,22.55,11.16,29.74,6.44,7.44,16.36,10.16,23.79,10.16,10.17,0,17.6-2.23,23.55-7.93,1.98-1.74,2.98-1.24,2.98-.25s-.74,2.23-2.23,3.97c-9.42,10.66-20.33,16.36-35.2,16.36-11.9,0-22.06-4.71-29.5-12.65-7.69-7.93-11.9-19.82-11.9-33.22,0-11.89,4.22-26.52,14.88-36.68,6.69-6.44,17.84-12.14,30.74-12.14,15.37,0,30.49,10.9,30.49,25.78ZM1576.02,2076.69c-2.98,3.47-5.21,8.92-5.21,10.66,0,.5.5,1.24.99,1.24h29.99c5.7,0,6.2-2.98,6.2-5.21,0-3.47-.74-7.68-3.47-10.9-2.23-2.23-6.2-4.71-11.65-4.71-5.95,0-11.65,3.72-16.86,8.92Z" fill="#f1ece3"/>
        <path d="M1733.44,2072.97c5.45,5.7,7.68,17.85,7.93,31.98,0,13.38.25,15.62.25,28.26.25,16.61.99,18.34,7.68,19.83,2.23.74,3.72,1.49,3.72,2.48,0,1.49-1.74,1.74-4.21,1.74-3.97,0-11.41-.99-16.61-.99-9.92,0-13.64.99-16.86.99-1.98,0-3.97-.5-3.97-1.49s1.49-1.98,4.46-2.73c6.19-1.49,7.18-3.22,7.18-10.16v-34.21c0-19.83-1.74-25.78-7.68-30.49-3.72-2.98-8.43-4.46-13.63-4.46-6.2,0-12.15,2.48-17.85,7.19-1.49,1.48-2.73,4.96-2.73,6.94,0,3.47.25,15.86.25,29.99.25,16.11.99,23.8,1.24,27.26.74,5.7,3.46,6.94,7.68,7.94,2.98.99,3.97,1.49,3.97,2.73,0,1.49-2.48,1.49-4.71,1.49s-14.87-.99-20.32-.99c-3.47,0-8.93.5-14.38.5-2.72,0-4.46-.5-4.46-1.74s1.98-1.98,4.95-2.48c6.45-1.24,6.94-2.98,7.19-8.18.5-17.1.74-39.42.74-60.24,0-2.48-.5-5.2-6.2-8.18-1.74-1.24-1.98-1.74-1.98-2.48s.99-1.24,3.47-1.98c6.2-1.49,17.1-6.2,21.32-8.68.74-.5,1.98.5,1.74,1.98-.25,2.97-.74,9.17-.5,12.89,0,.5.74.99,1.24.5,5.94-4.46,11.65-8.43,16.86-10.66,4.95-2.48,10.16-3.22,14.62-3.22,10.16,0,16.11,4.71,19.58,8.67ZM1697,2029.1c2.98.25,12.14,2.23,16.86,2.23,4.95,0,8.67-1.24,12.39-6.44,1.24-1.74,2.48-2.48,3.22-2.48.5,0,.99,1.49-.25,3.22-1.74,2.48-8.68,11.16-9.67,12.4-1.24,1.74-3.96,3.22-5.2,3.22-5.46,0-20.08-3.22-24.54-3.22-4.95,0-6.44.99-11.15,6.94-1.24.99-1.74,1.49-2.73,1.49-.5,0-.74-.5.5-3.72,1.49-2.97,5.95-8.68,8.93-11.9,1.73-1.49,3.22-2.23,3.96-2.23,2.98,0,3.97.25,7.69.5Z" fill="#f1ece3"/>
        <path d="M1875.48,2111.14c0,19.08-11.15,32.47-19.08,38.66-7.94,5.95-19.58,9.42-28.51,9.42-26.02,0-48.34-20.33-48.34-46.36,0-18.58,8.93-30.73,17.85-37.92,7.19-5.7,18.59-10.66,30.24-10.66,27.52,0,47.84,20.82,47.84,46.85ZM1799.38,2107.18c0,10.66,2.23,24.29,9.67,34.7,6.44,8.92,14.87,13.14,22.06,13.14,5.95,0,11.16-2.48,14.87-6.2,3.47-3.22,9.67-15.12,9.67-33.22,0-24.78-10.91-47.09-31.73-47.09-11.9,0-24.54,14.13-24.54,38.67Z" fill="#f1ece3"/>
        <path d="M1998.44,2100.73c.5,0,1.24.74,1.24,1.49,0,.99-.25,5.45-1.49,7.44-.25.74-1.98,1.49-2.23,1.49-2.48.5-34.7,2.97-36.94,2.97-1.74,0-2.22-.5-2.22-1.48,0-.74.25-4.46,1.23-6.2.5-.74,1.24-1.24,2.23-1.49,1.74-.25,32.97-3.96,38.18-4.21Z" fill="#f1ece3"/>
        <path d="M2089.67,2079.91c0-1.98-.5-3.22-1.24-3.22-1.49,0-4.22-.25-6.94-.5-1.48,0-3.22-1.24-3.22-1.98s1.24-1.48,2.97-2.48c1.74-.99,3.97-2.23,6.2-3.72,1.49-.99,2.23-2.73,2.23-3.47.25-17.6.99-29.75,4.46-39.91,3.96-12.64,11.65-25.28,25.78-33.46,7.19-4.46,15.12-5.95,21.82-5.95,10.16,0,17.35,4.21,17.35,8.42,0,2.98-3.97,7.44-6.45,8.68-1.49.99-4.22.5-5.46-.5-3.46-2.23-9.17-9.42-18.1-9.42-10.41,0-18.09,6.94-20.32,30.98-.74,7.93-1.24,26.02-1.24,33.96,0,3.22.25,7.19.5,8.43,0,.5.74,1.49,1.98,1.49,1.98,0,22.06-.5,24.78-.5.99,0,2.23,1.74,2.23,4.96s-.74,4.46-3.47,4.46c-4.46,0-20.82-.5-24.29-.5-.74,0-1.24,1.74-1.24,1.98-.25,8.68.5,54.78.74,61.97.74,9.17,2.73,11.15,5.2,11.9,1.98.74,4.71.99,7.69,1.74,2.98.5,4.46,1.24,4.46,2.23,0,1.24-1.98,1.74-4.22,1.74-7.44,0-11.65-.99-25.29-.99-5.7,0-11.15.74-15.12.99-2.47,0-3.71-.5-3.71-1.49s1.49-1.74,4.7-2.48c5.95-1.49,7.19-4.71,7.19-13.63v-59.74Z" fill="#f1ece3"/>
        <path d="M2252.53,2111.14c0,19.08-11.15,32.47-19.08,38.66-7.94,5.95-19.58,9.42-28.51,9.42-26.02,0-48.34-20.33-48.34-46.36,0-18.58,8.93-30.73,17.85-37.92,7.19-5.7,18.59-10.66,30.24-10.66,27.52,0,47.84,20.82,47.84,46.85ZM2176.43,2107.18c0,10.66,2.23,24.29,9.67,34.7,6.44,8.92,14.87,13.14,22.06,13.14,5.95,0,11.16-2.48,14.87-6.2,3.47-3.22,9.67-15.12,9.67-33.22,0-24.78-10.91-47.09-31.73-47.09-11.9,0-24.54,14.13-24.54,38.67Z" fill="#f1ece3"/>
        <path d="M2314.51,2083.13c-2.48,2.73-3.47,5.21-3.72,7.93-.74,3.47-.5,11.16-.5,16.11,0,18.1.5,30.24.99,35.45.99,7.93,3.72,9.66,13.14,10.41,3.47.74,4.46,1.24,4.46,2.48s-1.98,1.74-5.7,1.74c-5.21,0-12.39-.99-23.3-.99s-12.39,1.24-16.6,1.24c-2.73,0-3.97-.25-3.97-1.24s1.24-2.23,3.47-2.73c5.45-1.24,7.93-3.22,8.67-10.16.5-4.22.74-18.1.74-34.46.25-15.62.25-23.55,0-27.02,0-1.73-1.49-2.23-6.2-6.44-1.74-1.24-1.98-1.74-1.98-2.48,0-.49,1.49-1.48,3.47-2.23,6.2-1.74,13.63-4.22,17.85-6.44,1.74-.99,2.98-1.24,3.72-1.24.5,0,1.24.99,1.24,2.97,0,3.22-.5,12.15-.5,16.36,0,.74.74.99,1.24.5,6.94-8.92,16.61-17.84,26.52-17.84,2.98,0,6.2.99,8.43,2.72,1.73,1.49,2.22,2.73,2.22,3.97,0,1.98-2.47,6.2-5.7,9.17-2.48,2.23-3.47,2.48-4.46,2.48-.5,0-1.49,0-4.46-1.74-2.73-1.73-5.94-3.22-8.67-3.22-3.72,0-7.44,1.98-10.41,4.71Z" fill="#f1ece3"/>
        <path d="M2374,2072.48c5.7-1.24,13.88-4.46,18.34-7.68,1.49-.99,2.73-1.49,3.97-1.49.74,0,1.24.99,1.24,2.48,0,2.73-.25,8.92-.25,11.65,0,.99.25,2.23,1.24,1.49,8.18-7.19,19.58-14.38,30.49-14.38s19.34,5.2,24.78,15.86c.25.5,1.24.74,1.49.25,10.41-9.92,21.57-16.36,33.71-16.36,13.38,0,22.06,8.67,25.03,18.34,1.74,4.96,2.98,14.13,3.22,23.3,0,8.18.74,27.51.99,35.94.25,8.18,1.98,9.91,6.94,10.9,3.22.5,4.46,1.49,4.46,2.23,0,1.24-1.23,1.74-4.46,1.74-2.73,0-11.66-.5-17.35-.5s-12.39.74-16.11.74c-3.22,0-4.71-.5-4.71-1.49,0-1.24,1.98-1.98,4.22-2.48,6.44-1.49,7.68-3.72,7.93-11.15.25-29.74-.99-41.64-1.98-49.08-1.98-12.64-8.67-18.34-20.07-18.34-8.43,0-15.86,4.71-19.58,8.68-.99.74-1.49,3.22-1.49,7.19.74,7.44,1.24,45.86,1.74,52.55.74,6.94,1.49,8.67,7.43,10.16,2.73.74,3.97,1.24,3.97,2.23s-1.74,1.74-4.21,1.74c-5.46,0-11.9-.74-20.08-.74-5.46,0-11.9.74-14.38.74-2.98,0-3.97-.5-3.97-1.49,0-.74.99-1.74,3.97-2.48,5.2-1.24,7.68-2.73,7.68-8.67l.5-39.91c0-13.64-1.24-19.34-6.19-24.54-2.98-3.22-7.19-5.46-14.38-5.46-7.93,0-13.88,3.72-17.59,6.94-1.74,1.74-2.48,4.22-2.73,5.95-.25,2.72-.74,8.18-.74,17.35,0,20.58.74,36.19,1.49,40.65.5,3.72,1.74,6.45,7.43,7.69,2.73.5,3.72,1.24,3.72,1.98,0,1.24-1.98,1.98-3.72,1.98-4.7,0-13.14-.74-19.09-.74-8.18,0-13.38.74-17.34.74-2.23,0-4.22-.74-4.22-1.98,0-.99,1.49-1.74,4.7-2.23,7.44-1.74,7.94-4.46,8.18-7.69.74-4.95.99-27.51.99-40.4,0-8.42,0-14.62-.25-19.08-.25-3.72-1.74-5.95-5.46-8.43-1.74-1.24-2.48-1.74-2.48-2.73,0-.74,1.24-1.24,2.98-1.98Z" fill="#f1ece3"/>
        <path d="M2613.97,2076.44c2.98,5.2,4.22,15.62,4.22,23.05,0,9.92-.74,32.72-.74,39.16,0,4.46,2.22,8.92,8.67,8.92,2.23,0,4.71-.5,7.44-1.98,1.24-.74,2.22,0,1.24,2.23-3.72,7.44-11.9,11.41-19.83,11.41s-13.14-6.2-15.12-11.41c-.25-.5-.99-.74-1.24-.25-7.44,6.94-14.87,11.16-24.3,11.16-9.91,0-19.82-8.43-19.82-21.57,0-8.18,6.19-13.14,8.92-14.38,6.2-3.22,28.01-9.67,33.71-11.65,1.98-.74,2.98-2.73,3.22-3.72.25-2.97.5-8.43.5-11.65,0-10.16-1.98-16.61-5.95-19.83-3.22-2.48-7.19-3.96-10.16-3.96-3.72,0-6.45.74-9.67,2.97-1.49,1.24-2.98,2.73-3.46,5.46-.25.99,0,3.47,0,5.2,0,.74-.74,1.74-1.24,2.23-2.48,1.48-10.17,5.45-12.65,5.95-.99.25-2.22-1.24-2.22-2.48,0-1.98,1.98-4.71,4.95-8.18,5.46-6.2,12.89-10.9,18.84-14.13,5.7-2.98,11.15-4.71,15.12-4.71,9.18,0,16.61,5.2,19.58,12.14ZM2596.37,2145.1c.99-.98,2.23-3.22,2.73-5.7.74-3.97,1.24-14.13,1.24-23.8,0-.5-.5-1.74-1.24-1.49-2.98.5-15.86,5.21-21.07,7.94-3.22,1.74-6.44,5.7-6.44,12.64,0,8.43,7.18,14.13,14.62,14.13,3.96,0,7.68-1.24,10.16-3.72Z" fill="#f1ece3"/>
      </g>
    </g>
  </g>
</svg>